<svg width="16" height="16" viewBox="0 0 16 16" fill="none" xmlns="http://www.w3.org/2000/svg">
<path fill-rule="evenodd" clip-rule="evenodd" d="M5.59689 3.49967H10.3996C11.1745 2.45289 10.1304 0.987857 8.83351 1.40624L8.215 1.60577C8.07417 1.6512 7.92227 1.6512 7.78145 1.60577L7.16294 1.40624C5.866 0.987856 4.82192 2.45289 5.59689 3.49967ZM10.3274 4.49967H5.669C4.78948 4.98666 4.10236 5.79976 3.78773 6.80657L2.9544 9.47324C2.14949 12.049 4.07376 14.6663 6.77232 14.6663H7.41628C7.15265 14.2884 6.99805 13.8288 6.99805 13.333C6.99805 12.8373 7.15265 12.3776 7.41628 11.9997C7.15265 11.6217 6.99805 11.1621 6.99805 10.6663C6.99805 9.37768 8.04272 8.33301 9.33138 8.33301H12.6857L12.2087 6.80657C11.8941 5.79976 11.207 4.98666 10.3274 4.49967ZM9.33138 9.33301C8.595 9.33301 7.99805 9.92996 7.99805 10.6663C7.99805 11.4027 8.595 11.9997 9.33138 11.9997C8.595 11.9997 7.99805 12.5966 7.99805 13.333C7.99805 14.0694 8.595 14.6663 9.33138 14.6663H13.3314C14.0678 14.6663 14.6647 14.0694 14.6647 13.333C14.6647 12.5966 14.0678 11.9997 13.3314 11.9997C14.0678 11.9997 14.6647 11.4027 14.6647 10.6663C14.6647 9.92996 14.0678 9.33301 13.3314 9.33301H12.8869H9.33138Z" fill="#733E84"/>
</svg>
