<svg width="16" height="16" viewBox="0 0 16 16" fill="none" xmlns="http://www.w3.org/2000/svg">
<path d="M8.01242 1.94043C5.80575 1.94043 4.01242 3.73376 4.01242 5.94043V7.8671C4.01242 8.27376 3.83908 8.89376 3.63242 9.24043L2.86575 10.5138C2.39242 11.3004 2.71908 12.1738 3.58575 12.4671C6.45908 13.4271 9.55908 13.4271 12.4324 12.4671C13.2391 12.2004 13.5924 11.2471 13.1524 10.5138L12.3857 9.24043C12.1857 8.89376 12.0124 8.27376 12.0124 7.8671V5.94043C12.0124 3.74043 10.2124 1.94043 8.01242 1.94043Z" stroke="#5C5E75" stroke-miterlimit="10" stroke-linecap="round"/>
<path d="M9.24596 2.13395C9.0393 2.07395 8.82596 2.02728 8.60596 2.00061C7.96596 1.92061 7.35263 1.96728 6.7793 2.13395C6.97263 1.64061 7.45263 1.29395 8.01263 1.29395C8.57263 1.29395 9.05263 1.64061 9.24596 2.13395Z" stroke="#5C5E75" stroke-miterlimit="10" stroke-linecap="round" stroke-linejoin="round"/>
<path d="M10.0137 12.7061C10.0137 13.8061 9.11367 14.7061 8.01367 14.7061C7.46701 14.7061 6.96034 14.4794 6.60034 14.1194C6.24034 13.7594 6.01367 13.2527 6.01367 12.7061" stroke="#5C5E75" stroke-miterlimit="10"/>
</svg>
