<svg width="16" height="16" viewBox="0 0 16 16" fill="none" xmlns="http://www.w3.org/2000/svg">
<path d="M14 5.66569V11.8324C14 12.407 13.7717 12.9581 13.3654 13.3644C12.9591 13.7708 12.408 13.999 11.8333 13.999H4.16667C3.59203 13.999 3.04093 13.7708 2.6346 13.3644C2.22827 12.9581 2 12.407 2 11.8324V5.66569H14ZM9.33 7.12902C8.88733 7.12902 8.53578 7.24725 8.27533 7.48369C8.01489 7.72013 7.88467 8.04036 7.88467 8.44436C7.88467 8.67636 7.94378 8.88302 8.062 9.06436C8.18067 9.24569 8.34178 9.38836 8.54533 9.49236C8.31551 9.58955 8.11871 9.75116 7.97867 9.95769C7.84381 10.16 7.77359 10.3986 7.77733 10.6417C7.77733 11.0564 7.91889 11.3861 8.202 11.631C8.48511 11.8764 8.86222 11.999 9.33333 11.999C9.80178 11.999 10.1773 11.8768 10.46 11.6324C10.7418 11.3884 10.8827 11.0581 10.8827 10.6417C10.8827 10.3901 10.816 10.1644 10.6827 9.96436C10.5398 9.75693 10.342 9.59347 10.1113 9.49236C10.3176 9.38836 10.4802 9.24569 10.5993 9.06436C10.7193 8.88302 10.7791 8.67636 10.7787 8.44436C10.7787 8.0408 10.6484 7.7208 10.388 7.48436C10.1276 7.24747 9.77489 7.12902 9.33 7.12902ZM6.81333 7.17836H6.712L4.86333 7.85836V8.52569L6.02533 8.12836V11.9337H6.81333V7.17836ZM9.32667 9.81836C9.55689 9.81836 9.742 9.89036 9.882 10.0344C10.022 10.1788 10.092 10.3681 10.092 10.6024C10.092 10.8437 10.0253 11.0315 9.892 11.1657C9.75867 11.3004 9.57244 11.3677 9.33333 11.3677C9.09467 11.3677 8.90756 11.2981 8.772 11.159C8.636 11.0204 8.568 10.8348 8.568 10.6024C8.568 10.3659 8.63689 10.1761 8.77467 10.033C8.91244 9.88991 9.09644 9.81836 9.32667 9.81836ZM9.33 7.76436C9.53178 7.76436 9.69244 7.83102 9.812 7.96436C9.93156 8.09769 9.99111 8.26747 9.99067 8.47369C9.99067 8.69058 9.93156 8.86302 9.81333 8.99102C9.69556 9.11902 9.53556 9.18302 9.33333 9.18302C9.13111 9.18302 8.97111 9.11902 8.85333 8.99102C8.73467 8.86347 8.67556 8.69102 8.676 8.47369C8.676 8.25458 8.73445 8.08147 8.85133 7.95436C8.96867 7.82769 9.12822 7.76436 9.33 7.76436ZM11.8333 1.99902C12.408 1.99902 12.9591 2.2273 13.3654 2.63363C13.7717 3.03995 14 3.59105 14 4.16569V4.66569H2V4.16569C2 3.59105 2.22827 3.03995 2.6346 2.63363C3.04093 2.2273 3.59203 1.99902 4.16667 1.99902H11.8333Z" fill="#733E84"/>
</svg>
