<svg width="14" height="14" viewBox="0 0 14 14" fill="none" xmlns="http://www.w3.org/2000/svg">
<path d="M5.05859 8.35973C5.05859 9.11223 5.63609 9.71889 6.35359 9.71889H7.81776C8.44193 9.71889 8.94943 9.18806 8.94943 8.53473C8.94943 7.82306 8.64026 7.57223 8.17943 7.40889L5.82859 6.59223C5.36776 6.42889 5.05859 6.17806 5.05859 5.46639C5.05859 4.81306 5.56609 4.28223 6.19026 4.28223H7.65443C8.37193 4.28223 8.94943 4.88889 8.94943 5.64139" stroke="#5C6C83" stroke-linecap="round" stroke-linejoin="round"/>
<path d="M7 3.5V10.5" stroke="#5C6C83" stroke-linecap="round" stroke-linejoin="round"/>
<path d="M7.0013 12.8327C10.223 12.8327 12.8346 10.221 12.8346 6.99935C12.8346 3.77769 10.223 1.16602 7.0013 1.16602C3.77964 1.16602 1.16797 3.77769 1.16797 6.99935C1.16797 10.221 3.77964 12.8327 7.0013 12.8327Z" stroke="#5C6C83" stroke-linecap="round" stroke-linejoin="round"/>
</svg>
