<svg width="16" height="16" viewBox="0 0 16 16" fill="none" xmlns="http://www.w3.org/2000/svg">
<path d="M4.58767 7.6463L4.23412 7.99986L4.58767 8.35341L7.44557 11.2113C7.47467 11.2425 7.49073 11.2837 7.49036 11.3264C7.48998 11.3701 7.47245 11.4119 7.44155 11.4428C7.41065 11.4738 7.36884 11.4913 7.32514 11.4917C7.28241 11.492 7.24121 11.476 7.21001 11.4469L3.88083 8.11769C3.88081 8.11767 3.88079 8.11766 3.88078 8.11764C3.84956 8.08639 3.83203 8.04403 3.83203 7.99986C3.83203 7.95566 3.84958 7.91328 3.88083 7.88202L7.21406 4.5488C7.24531 4.51755 7.2877 4.5 7.33189 4.5C7.37608 4.5 7.41847 4.51755 7.44972 4.5488C7.4809 4.58004 7.49841 4.62238 7.49841 4.66652C7.49841 4.71069 7.48088 4.75305 7.44967 4.7843C7.44965 4.78432 7.44963 4.78434 7.44962 4.78436L4.58767 7.6463ZM8.58767 7.6463L8.23412 7.99986L8.58767 8.35341L11.4456 11.2113C11.4747 11.2425 11.4907 11.2837 11.4904 11.3264C11.49 11.3701 11.4725 11.4119 11.4415 11.4428C11.4106 11.4738 11.3688 11.4913 11.3251 11.4917C11.2824 11.492 11.2412 11.476 11.21 11.4469L7.88083 8.11769C7.88081 8.11767 7.88079 8.11766 7.88078 8.11764C7.84956 8.08639 7.83203 8.04403 7.83203 7.99986C7.83203 7.95566 7.84958 7.91328 7.88083 7.88202L11.2141 4.5488C11.2453 4.51755 11.2877 4.5 11.3319 4.5C11.3761 4.5 11.4185 4.51755 11.4497 4.5488C11.4809 4.58004 11.4984 4.62238 11.4984 4.66652C11.4984 4.71069 11.4809 4.75306 11.4497 4.7843C11.4497 4.78432 11.4496 4.78434 11.4496 4.78436L8.58767 7.6463Z" fill="#677382" stroke="#677382"/>
</svg>
