<svg width="19" height="18" viewBox="0 0 19 18" fill="none" xmlns="http://www.w3.org/2000/svg">
<g clip-path="url(#clip0_874_4973)">
<path d="M6.77127 0.592441C4.97279 1.21635 3.42178 2.40055 2.34607 3.9711C1.27035 5.54165 0.726633 7.41577 0.794767 9.31817C0.862901 11.2206 1.5393 13.051 2.72461 14.5406C3.90992 16.0301 5.54167 17.1004 7.38018 17.594C8.87069 17.9786 10.4323 17.9955 11.9308 17.6432C13.2883 17.3383 14.5433 16.6861 15.573 15.7504C16.6447 14.7468 17.4225 13.4701 17.823 12.0576C18.2583 10.5215 18.3357 8.9061 18.0494 7.33541H9.67939V10.8074H14.5267C14.4299 11.3612 14.2223 11.8897 13.9164 12.3614C13.6105 12.8331 13.2125 13.2382 12.7464 13.5524C12.1545 13.944 11.4873 14.2074 10.7875 14.3259C10.0857 14.4564 9.36588 14.4564 8.66408 14.3259C7.95279 14.1788 7.27991 13.8852 6.6883 13.4638C5.73788 12.7911 5.02425 11.8353 4.64924 10.7329C4.26788 9.60987 4.26788 8.39235 4.64924 7.26932C4.91618 6.48212 5.35747 5.76538 5.94018 5.1726C6.60701 4.48177 7.45124 3.98797 8.38024 3.74536C9.30924 3.50275 10.2871 3.52072 11.2066 3.79728C11.9249 4.01777 12.5817 4.40301 13.1247 4.92228C13.6713 4.37853 14.2169 3.83338 14.7616 3.28682C15.0428 2.99291 15.3494 2.71307 15.6264 2.41213C14.7975 1.64077 13.8246 1.04055 12.7633 0.645878C10.8307 -0.055855 8.71608 -0.0747134 6.77127 0.592441Z" fill="white"/>
<path d="M6.76906 0.592147C8.71371 -0.07546 10.8283 -0.057098 12.7611 0.644179C13.8226 1.04153 14.7951 1.64464 15.6228 2.41887C15.3416 2.7198 15.0448 3.00105 14.758 3.29355C14.2123 3.83824 13.6672 4.38105 13.1225 4.92199C12.5795 4.40272 11.9226 4.01748 11.2044 3.79699C10.2852 3.51945 9.30737 3.50045 8.37812 3.74207C7.44887 3.98368 6.60413 4.47658 5.93656 5.16668C5.35386 5.75946 4.91257 6.4762 4.64562 7.2634L1.73047 5.00637C2.77392 2.93716 4.58058 1.35437 6.76906 0.592147Z" fill="#E33629"/>
<path d="M0.959527 7.2418C1.11621 6.46526 1.37634 5.71324 1.73296 5.00586L4.64812 7.26852C4.26677 8.39156 4.26677 9.60907 4.64812 10.7321C3.67687 11.4821 2.70515 12.2359 1.73296 12.9934C0.840208 11.2163 0.567933 9.19157 0.959527 7.2418Z" fill="#F8BD00"/>
<path d="M9.68031 7.33398H18.0503C18.3366 8.90467 18.2592 10.5201 17.8239 12.0562C17.4235 13.4687 16.6456 14.7454 15.5739 15.749C14.6331 15.0149 13.6881 14.2865 12.7473 13.5524C13.2138 13.2378 13.6119 12.8323 13.9178 12.3601C14.2237 11.8879 14.4311 11.3589 14.5277 10.8046H9.68031C9.67891 9.64867 9.68031 8.49133 9.68031 7.33398Z" fill="#587DBD"/>
<path d="M1.73047 12.9937C2.70266 12.2437 3.67437 11.4899 4.64562 10.7324C5.02139 11.8352 5.73604 12.791 6.6875 13.4634C7.28095 13.8828 7.95528 14.174 8.6675 14.3184C9.3693 14.4489 10.0891 14.4489 10.7909 14.3184C11.4907 14.1999 12.1579 13.9365 12.7498 13.5449C13.6906 14.279 14.6356 15.0074 15.5764 15.7415C14.5469 16.6777 13.2918 17.3304 11.9342 17.6357C10.4357 17.988 8.87411 17.9711 7.38359 17.5865C6.20474 17.2717 5.10361 16.7169 4.14922 15.9566C3.13905 15.1546 2.314 14.1439 1.73047 12.9937Z" fill="#319F43"/>
</g>
<defs>
<clipPath id="clip0_874_4973">
<rect width="18" height="18" fill="white" transform="translate(0.5)"/>
</clipPath>
</defs>
</svg>
