<svg width="16" height="14" viewBox="0 0 16 14" fill="none" xmlns="http://www.w3.org/2000/svg">
<path d="M8.00088 7.66684V13.0002M8.00088 7.66684L5.33421 10.3335M8.00088 7.66684L10.6675 10.3335M2.66754 8.93284C2.17224 8.42679 1.79859 7.81465 1.5749 7.1428C1.35121 6.47095 1.28335 5.75701 1.37645 5.05504C1.46955 4.35308 1.72118 3.68151 2.11227 3.0912C2.50337 2.50089 3.02367 2.00732 3.63377 1.64788C4.24386 1.28843 4.92776 1.07255 5.63366 1.01656C6.33955 0.960578 7.04893 1.06597 7.70806 1.32475C8.36718 1.58353 8.95878 1.98892 9.43803 2.5102C9.91728 3.03149 10.2716 3.655 10.4742 4.33351H11.6675C12.3112 4.33344 12.9378 4.54039 13.4549 4.9238C13.9719 5.30722 14.3519 5.84675 14.5387 6.46271C14.7256 7.07868 14.7093 7.7384 14.4924 8.34443C14.2755 8.95045 13.8695 9.47065 13.3342 9.82818" stroke="#5C5E83" stroke-linecap="round" stroke-linejoin="round"/>
</svg>
