<svg width="464" height="212" viewBox="0 0 464 212" fill="none" xmlns="http://www.w3.org/2000/svg">
<path d="M134.641 76.2568H146.408L147.027 76.9113L150.743 88.6918L153.84 98.8361L154.459 99.1633L155.078 96.2182L161.581 76.5841L161.891 76.2568H172.729L173.968 79.202L180.161 98.8361L180.471 99.1633L185.425 84.4377L187.903 76.5841L188.212 76.2568H199.36L199.05 78.2202L193.786 93.9275L187.593 112.253L186.664 114.871L179.542 115.198H174.587L173.658 114.543L170.252 104.399L167.465 95.5637V94.582H166.845L166.536 96.2182L160.343 114.543L160.033 114.871L149.195 115.198H147.646L146.408 112.253L143.311 103.09L137.428 85.7467L134.641 77.2385V76.2568Z" fill="#BECEF2"/>
<path d="M320.127 75.6016H323.534L327.25 76.256L330.966 77.8922L334.062 80.1829L336.849 83.4552L339.017 88.0365L339.946 91.9633V99.4897L339.017 103.417L337.159 107.343L334.991 110.288L332.514 112.579L328.798 114.543L325.392 115.524L320.747 115.851L317.34 115.197L314.244 113.888L311.766 111.925V128.941H299.07V76.256H311.147L311.457 77.2377V79.5284L314.553 77.2377L317.96 75.9288L320.127 75.6016ZM318.269 86.4003L315.482 87.382L313.315 89.3454L312.076 91.9633L311.766 93.2723V98.1808L313.005 101.453L314.244 103.089L317.34 104.725H321.676L324.463 103.089L326.011 101.126L326.94 98.1808V93.2723L326.011 90.3271L323.843 87.7093L320.437 86.4003H318.269Z" fill="#BECEF2"/>
<path d="M225.991 75.6016H229.397L233.113 76.256L237.448 78.5467L240.235 81.4918L242.093 85.4186L242.713 88.0365L243.022 92.2906V114.87L230.326 115.197L230.017 114.87L229.707 92.945L228.778 89.9999L227.539 88.3637L224.443 87.382L221.656 87.7093L219.178 89.3454L217.94 90.9816L217.011 94.5812L216.701 114.87H203.695V76.5833L204.005 76.256H215.772L216.082 76.5833V80.1829L219.178 77.8922L222.585 76.256L225.991 75.6016Z" fill="#BECEF2"/>
<path d="M251.692 76.2568H264.079L264.389 76.5841L264.698 98.1816L265.627 101.454L265.937 102.436L267.176 103.09L269.034 103.745H272.13L274.607 102.436L276.156 100.472L276.775 98.5088L277.085 95.8909L277.394 76.2568H290.091V114.871L284.207 115.198H280.801L278.014 114.871L277.704 111.598L274.607 113.889L271.511 115.198L268.414 115.852H265.318L260.982 114.871L257.266 112.907L254.17 109.635L252.621 106.362L251.692 102.763L251.383 99.1633V76.5841L251.692 76.2568Z" fill="#BECEF2"/>
<path d="M109.557 75.6016H113.583L118.847 76.5833L122.563 78.2194L125.66 80.5101L127.518 82.1463L130.305 86.4003L131.543 89.6727L132.163 92.6178V98.8353L130.924 103.417L129.066 107.016L126.279 110.288L123.492 112.579L120.086 114.215L115.441 115.524L110.177 115.851L105.841 115.197L102.125 113.888L98.0999 111.597L94.3839 107.671L92.5259 104.398L91.2873 101.126L90.668 96.5446L90.9776 91.6361L92.5259 86.7276L95.3129 82.4735L98.4095 79.5284L103.364 76.9105L106.77 75.9288L109.557 75.6016ZM110.486 86.4003L107.699 87.382L105.222 89.6727L103.983 92.945V98.508L104.912 101.126L106.77 103.417L109.557 104.725H113.583L116.06 103.417L118.228 100.799L119.157 97.5263V93.5995L118.228 90.6544L116.37 88.0365L113.893 86.7276L110.486 86.4003Z" fill="#BECEF2"/>
<path d="M45.7667 65.1309H88.1904V75.9296L87.8807 76.2569H73.6363V114.871L60.6305 115.198L60.0112 114.871V76.5841L45.7667 76.2569L45.457 68.4032V65.4581L45.7667 65.1309Z" fill="#BECEF2"/>
<path d="M371.221 69.3848H373.699L375.866 70.6937L379.273 74.6205L388.253 84.1103L389.182 86.0738V88.3644L387.633 90.6551L386.395 91.3095H383.918L381.44 89.3461L376.795 84.4376L376.486 112.907L375.247 115.198L374.318 115.852H370.602L368.744 113.562L368.434 112.58V84.4376L365.957 86.7282L362.241 90.6551L359.454 91.6368L356.977 90.3278L356.048 89.0189L355.738 86.0738L357.596 83.1286L369.983 70.0392L371.221 69.3848Z" fill="#FEFEFE"/>
<path d="M89.7383 145.304H93.4542L97.1702 156.43V157.411H97.7895L98.7185 154.139L101.815 145.631L102.125 145.304H105.531L109.557 157.084L110.176 156.102L113.582 145.958L113.892 145.304H117.298L116.989 146.94L113.582 157.084L111.415 162.32H108.008L106.15 158.393L103.983 152.176V151.194H103.363L102.434 154.466L99.6475 161.993L99.3378 162.32H95.9315L95.0025 160.684L91.9059 152.176L89.7383 145.958V145.304Z" fill="#FEFEFE"/>
<path d="M287.925 144.976H290.712L294.118 146.285L296.286 148.575L297.525 151.848V155.774L296.286 159.047L295.047 160.683L292.26 162.319L290.712 162.646H287.925L285.138 161.665L283.9 160.683L284.209 161.665V168.537H280.184V145.303H283.9L284.209 146.939L286.686 145.303L287.925 144.976ZM287.306 148.575L285.758 149.557L284.519 151.193L284.209 151.848V155.774L285.138 157.411L286.377 158.719L287.306 159.047H290.402L291.951 158.065L293.189 156.429L293.499 155.774V151.848L292.26 149.884L290.402 148.575H287.306Z" fill="#FEFEFE"/>
<path d="M347.378 144.976H350.165L352.952 145.957L355.429 148.248L356.668 150.866L356.978 152.175V155.447L355.739 159.047L353.572 161.337L351.714 162.319L349.856 162.646H347.378L344.591 161.665L343.353 160.683V168.537H339.637V145.303H343.353V146.612L344.901 145.957L347.378 144.976ZM346.759 148.575L345.211 149.557L343.972 150.866L343.353 153.156L343.662 156.102L345.83 158.719L346.449 159.047H349.856L351.714 157.738L352.643 156.429L352.952 155.447V152.175L351.714 149.884L349.856 148.575H346.759Z" fill="#FEFEFE"/>
<path d="M50.7237 139.74H60.0136L64.3489 140.722L66.8262 142.685L68.0648 144.649L68.3745 145.63V150.212L67.1358 152.83L64.9682 154.793L62.1812 155.775L59.0846 156.102H54.7493V161.992L54.4397 162.319H50.7237L50.4141 161.665V140.067L50.7237 139.74ZM54.7493 143.34L54.4397 144.322V151.848L55.059 152.502H58.7749L62.4909 151.848L64.0392 150.212L64.3489 149.23V146.285L63.4199 144.649L61.8716 143.667L59.7039 143.34H54.7493Z" fill="#FEFEFE"/>
<path d="M394.758 45.4961L397.235 46.805L403.118 53.0225L404.047 54.3314V56.2949L402.809 57.6038L400.641 57.2766L397.545 54.3314L397.235 69.057L396.616 70.366L395.687 71.0204L393.519 70.6932L392.9 70.366L392.59 63.494V56.6221L392.9 54.0042L389.493 56.9493L388.564 57.6038L386.397 57.2766L385.777 56.2949V54.3314L388.564 51.0591L392.28 47.1323L394.758 45.4961Z" fill="#FDFDFD"/>
<path d="M355.121 30.4434L356.669 30.7706L359.766 33.7157L364.72 38.9515V41.2421L363.482 42.5511L361.624 42.2238L358.527 39.2787L358.217 38.9515L357.908 54.3315L356.669 55.6405H354.502L353.573 54.6588V38.6242L351.095 40.9149L349.237 42.5511L347.379 42.2238L346.141 40.2604L347.379 37.9698L353.263 31.7523L355.121 30.4434Z" fill="#FEFEFE"/>
<path d="M306.814 144.976H309.601L312.388 145.957L314.246 147.266L316.103 150.539L316.413 151.52V155.12H303.717L304.646 157.083L305.885 158.392L306.814 158.719H310.839L313.317 157.411L314.865 159.047L315.175 160.356L312.697 161.992L310.22 162.646H307.123L304.646 161.992L301.859 160.028L300.311 157.411L299.691 154.465L300.001 151.193L301.24 148.575L302.788 146.939L304.646 145.63L306.814 144.976ZM307.123 148.248L305.265 149.23L303.717 151.193V152.502H312.697L312.388 150.866L310.839 148.902L309.291 148.248H307.123Z" fill="#FEFEFE"/>
<path d="M125.661 144.976H128.448L131.235 145.957L133.713 148.248L134.951 150.866L135.261 151.848V155.12H122.565L123.494 157.083L124.732 158.392L127.829 159.047L130.616 158.392L131.855 157.411H132.474L134.022 159.374L133.713 160.683L130.616 162.319L129.068 162.646H125.661L122.874 161.665L120.397 159.701L118.849 156.429L118.539 152.829L119.468 149.557L121.326 146.939L124.113 145.303L125.661 144.976ZM125.971 148.248L124.113 149.23L122.565 151.193V152.502H131.545L131.235 150.866L129.687 148.902L128.139 148.248H125.971Z" fill="#FEFEFE"/>
<path d="M374.938 144.976H378.034L380.821 145.957L382.989 147.921L384.537 151.193L384.847 152.502V154.793L384.537 155.12H371.841L373.389 157.738L374.938 158.719L377.415 159.047L379.892 158.392L381.131 157.411L382.369 158.065L383.298 159.374L382.989 160.683L381.131 161.992L378.654 162.646H375.247L372.151 161.665L369.673 159.374L368.435 156.756L368.125 155.774V151.848L369.364 148.902L371.222 146.612L373.699 145.303L374.938 144.976ZM375.557 148.248L373.08 149.557L371.841 151.52L372.151 152.502H381.131L380.821 151.193L379.582 149.23L377.725 148.248H375.557Z" fill="#FEFEFE"/>
<path d="M326.014 144.976H328.801L331.588 145.957L333.446 147.266L335.304 149.884L335.923 151.848V156.102L334.375 159.374L331.898 161.665L328.801 162.646H325.704L322.608 161.665L320.13 159.374L318.892 156.756L318.582 155.447V152.175L319.821 148.902L321.369 146.939L324.466 145.303L326.014 144.976ZM325.704 148.575L323.846 149.884L322.917 151.193L322.608 152.175V155.774L323.846 157.738L324.775 158.719L325.704 159.047H328.801L330.349 158.065L331.898 156.102L332.207 153.484L331.588 150.866L329.73 148.902L328.801 148.575H325.704Z" fill="#FEFEFE"/>
<path d="M224.752 144.976H227.23L229.707 145.63L232.184 147.266L234.042 149.884L234.661 151.848V156.102L233.113 159.374L230.636 161.665L227.539 162.646H224.443L221.346 161.665L218.869 159.374L217.63 156.756L217.32 155.447V152.175L218.559 148.902L220.107 146.939L223.204 145.303L224.752 144.976ZM224.443 148.575L222.894 149.557L221.656 151.193L221.346 151.848V155.774L222.585 157.738L223.514 158.719L224.443 159.047H227.539L229.707 157.738L230.636 155.774V151.52L228.468 148.902L227.539 148.575H224.443Z" fill="#FEFEFE"/>
<path d="M78.2824 144.976H81.0693L84.166 145.957L86.6433 147.921L88.1916 151.193L88.5012 152.502V155.12L87.5722 158.065L85.7143 160.683L82.9273 162.319L81.0693 162.646H77.9727L75.1858 161.665L72.7085 159.374L71.1602 156.102V151.52L72.7085 148.248L74.8761 146.285L78.2824 144.976ZM78.2824 148.575L76.1148 149.884L75.1858 151.52L74.8761 155.12L76.1148 157.738L77.9727 159.047H81.379L83.237 157.738L84.166 156.429L84.4756 155.447V152.175L83.5466 150.211L81.9983 148.902L81.379 148.575H78.2824Z" fill="#FEFEFE"/>
<path d="M178.923 144.976H181.71L184.807 145.957L187.284 147.921L188.832 151.193L189.142 152.829V155.12L188.213 158.065L186.355 160.683L183.258 162.319L181.71 162.646H178.613L175.826 161.665L173.349 159.374L171.801 156.102V151.52L173.349 148.248L175.517 146.285L177.375 145.303L178.923 144.976ZM178.923 148.575L176.755 149.884L175.826 151.52L175.517 152.829V155.12L176.755 157.738L178.613 159.047H182.02L183.878 157.738L184.807 156.429L185.116 155.447V152.175L184.187 150.211L182.639 148.902L181.71 148.575H178.923Z" fill="#FEFEFE"/>
<path d="M198.43 145.304H202.455L204.313 149.231L207.41 157.084L208.339 155.775L212.364 145.631L212.674 145.304H216.39L215.771 147.267L211.435 157.739L208.339 165.265L206.171 167.883L204.004 168.865H201.217L198.43 167.883L198.739 165.92L199.668 164.283L201.836 165.265L204.004 164.938L205.242 162.974L204.313 159.702L199.668 148.576L198.43 145.304Z" fill="#FEFEFE"/>
<path d="M238.066 145.304H242.092L242.402 156.43L243.64 158.393L244.569 158.72H247.356L249.214 157.411L249.834 156.102L250.143 145.304H254.169V162.32H250.453V160.684L247.976 162.32L246.427 162.647H243.64L240.853 161.665L238.995 159.375L238.376 157.739L238.066 155.775V145.304Z" fill="#FEFEFE"/>
<path d="M160.654 141.377H164.37V145.304H168.705L169.015 145.631V148.249L168.705 148.576H164.68V156.43L165.299 158.72L167.467 159.048L169.015 158.72L169.944 161.666L167.467 162.647H164.68L162.512 161.666L160.964 159.702L160.654 158.393V148.576H158.177L157.867 148.249V145.631L158.177 145.304H160.654V141.377Z" fill="#FEFEFE"/>
<path d="M360.696 138.432H364.103L364.412 138.759V162.32H360.696L360.387 161.993V143.013L360.696 138.432Z" fill="#FEFEFE"/>
<path d="M147.028 144.976L148.576 145.303V148.575L148.266 148.902L145.17 149.557L143.621 151.193L143.312 151.848L143.002 161.992L142.693 162.319H138.977V145.303H142.693V146.939L145.789 145.303L147.028 144.976Z" fill="#FEFEFE"/>
<path d="M267.486 144.976H268.415V148.902L265.318 149.557L263.77 150.866L263.151 154.138L262.841 162.319H259.125V145.303H262.841L262.531 147.266L265.009 145.63L267.486 144.976Z" fill="#FEFEFE"/>
<path d="M388.254 157.41H390.422L391.97 159.046V161.01L390.422 162.646H388.564L387.016 161.01V158.719L388.254 157.41Z" fill="#FEFEFE"/>
</svg>
